<svg width="276" height="49" viewBox="0 0 276 49" fill="none" xmlns="http://www.w3.org/2000/svg">
<path d="M177.989 1.54736L178.347 0.969779L178.182 0.867843H177.989V1.54736ZM217.323 25.9259L216.965 26.5035L217.13 26.6055H217.323V25.9259ZM268.03 25.9259C268.03 27.9275 269.652 29.5501 271.654 29.5501C273.655 29.5501 275.278 27.9275 275.278 25.9259C275.278 23.9244 273.655 22.3018 271.654 22.3018C269.652 22.3018 268.03 23.9244 268.03 25.9259ZM0 2.22688L177.989 2.22688V0.867843L0 0.867843L0 2.22688ZM177.631 2.12495L216.965 26.5035L217.681 25.3484L178.347 0.969779L177.631 2.12495ZM217.323 26.6055L271.654 26.6055V25.2464L217.323 25.2464V26.6055Z" fill="url(#paint0_linear_676_862)"/>
<path d="M104.6 43.6558C104.6 46.3245 106.764 48.4879 109.432 48.4879C112.101 48.4879 114.265 46.3245 114.265 43.6558C114.265 40.987 112.101 38.8236 109.432 38.8236C106.764 38.8236 104.6 40.987 104.6 43.6558ZM0 44.5618H109.432V42.7497H0L0 44.5618Z" fill="url(#paint1_linear_676_862)"/>
<defs>
<linearGradient id="paint0_linear_676_862" x1="-92.3525" y1="25.9259" x2="-84.6121" y2="78.4391" gradientUnits="userSpaceOnUse">
<stop offset="0.0216666" stop-color="#78AAC5"/>
<stop offset="0.290913" stop-color="#F3808E"/>
<stop offset="0.590653" stop-color="#FCB236"/>
<stop offset="1" stop-color="#F7EEA6"/>
</linearGradient>
<linearGradient id="paint1_linear_676_862" x1="0" y1="44.1558" x2="109.432" y2="44.1558" gradientUnits="userSpaceOnUse">
<stop stop-color="#78AAC5"/>
<stop offset="1" stop-color="#F3808E"/>
</linearGradient>
</defs>
</svg>
