<svg width="260" height="46" viewBox="0 0 260 46" fill="none" xmlns="http://www.w3.org/2000/svg">
<path d="M93.0887 44.5713L92.7498 45.1182L92.9055 45.2147H93.0887V44.5713ZM55.8457 21.489L56.1846 20.9421L56.0289 20.8456H55.8457V21.489ZM7.83521 21.489C7.83521 19.5938 6.29892 18.0575 4.40381 18.0575C2.5087 18.0575 0.972382 19.5938 0.972382 21.489C0.972382 23.3841 2.5087 24.9204 4.40381 24.9204C6.29892 24.9204 7.83521 23.3841 7.83521 21.489ZM261.613 43.9279L93.0887 43.9279V45.2147L261.613 45.2147V43.9279ZM93.4276 44.0244L56.1846 20.9421L55.5068 22.0358L92.7498 45.1182L93.4276 44.0244ZM55.8457 20.8456L4.40381 20.8456V22.1323L55.8457 22.1323V20.8456Z" fill="url(#paint0_linear_676_865)"/>
<path d="M162.575 4.70166C162.575 2.17484 160.526 0.12645 158 0.12645C155.473 0.12645 153.424 2.17484 153.424 4.70166C153.424 7.22848 155.473 9.27687 158 9.27687C160.526 9.27687 162.575 7.22848 162.575 4.70166ZM261.613 3.84381L158 3.84381V5.55951L261.613 5.55951V3.84381Z" fill="url(#paint1_linear_676_865)"/>
<defs>
<linearGradient id="paint0_linear_676_865" x1="349.055" y1="21.489" x2="341.726" y2="-28.232" gradientUnits="userSpaceOnUse">
<stop offset="0.0216666" stop-color="#78AAC5"/>
<stop offset="0.290913" stop-color="#F3808E"/>
<stop offset="0.590653" stop-color="#FCB236"/>
<stop offset="1" stop-color="#F7EEA6"/>
</linearGradient>
<linearGradient id="paint1_linear_676_865" x1="261.613" y1="4.20166" x2="158" y2="4.20166" gradientUnits="userSpaceOnUse">
<stop stop-color="#78AAC5"/>
<stop offset="1" stop-color="#F3808E"/>
</linearGradient>
</defs>
</svg>
